<?xml version="1.0" standalone="no"?>
<!DOCTYPE svg PUBLIC "-//W3C//DTD SVG 20010904//EN"
 "http://www.w3.org/TR/2001/REC-SVG-20010904/DTD/svg10.dtd">
<svg version="1.0" xmlns="http://www.w3.org/2000/svg"
 width="1080.000000pt" height="1080.000000pt" viewBox="0 0 1080.000000 1080.000000"
 preserveAspectRatio="xMidYMid meet">
<metadata>
Created by potrace 1.14, written by Peter Selinger 2001-2017
</metadata>
<g transform="translate(0.000000,1080.000000) scale(0.100000,-0.100000)"
fill="#000000" stroke="none">
<path d="M5338 10615 c-1 -2 -32 -6 -68 -9 -36 -2 -110 -14 -165 -26 -708
-154 -1255 -675 -1439 -1372 -24 -92 -27 -108 -47 -243 -16 -106 -13 -365 5
-490 26 -187 92 -421 146 -523 11 -20 20 -41 20 -46 0 -27 181 -324 250 -410
75 -94 148 -174 220 -242 47 -45 103 -99 126 -120 144 -136 217 -251 238 -372
3 -18 6 -269 6 -558 l1 -525 23 -66 c53 -145 171 -254 302 -279 27 -5 57 -28
125 -95 l90 -89 315 0 315 0 91 90 c50 50 98 90 107 91 81 4 198 79 261 169
77 109 79 127 80 670 1 557 2 591 20 650 31 102 79 168 221 305 184 178 265
261 299 305 19 25 37 47 41 50 3 3 33 43 66 90 213 301 337 633 370 990 62
679 -233 1318 -793 1717 -163 116 -418 236 -590 278 -77 19 -207 46 -244 50
-52 7 -386 15 -392 10z"/>
<path d="M3075 5139 c-191 -16 -322 -42 -500 -98 -80 -26 -112 -38 -190 -70
-135 -56 -256 -124 -426 -238 l-107 -71 -68 0 c-113 0 -202 -32 -277 -100
-147 -136 -267 -267 -296 -325 -38 -76 -51 -156 -38 -234 5 -32 10 -76 11 -98
l1 -40 -78 -2 -78 -1 -209 -212 c-183 -184 -214 -220 -245 -283 -71 -147 -67
-309 12 -455 38 -68 374 -403 438 -434 51 -26 104 -45 146 -53 53 -11 158 -6
214 10 110 31 160 69 368 274 109 108 204 196 210 196 6 0 40 -37 76 -82 l66
-81 53 51 52 52 273 -272 c149 -149 320 -318 378 -375 132 -128 145 -146 203
-288 27 -63 58 -128 71 -145 46 -61 1485 -1490 1532 -1521 144 -96 344 -101
503 -11 36 20 117 93 231 206 184 184 218 233 249 351 30 112 5 256 -62 371
-15 25 -350 368 -772 789 l-746 745 -116 51 c-64 28 -133 61 -153 72 -39 22
-45 28 -516 501 l-299 301 54 55 c30 30 50 55 45 55 -6 0 -28 16 -50 36 -22
19 -57 50 -79 67 -181 148 -191 162 -180 234 14 95 80 189 164 235 54 30 73
35 170 43 194 17 341 117 420 288 38 80 43 122 44 342 l1 170 -210 0 c-116 0
-246 -3 -290 -6z"/>
<path d="M7300 5140 c-105 -17 -174 -53 -255 -133 -93 -92 -133 -183 -139
-314 -3 -93 5 -144 40 -241 23 -63 112 -217 134 -232 4 -3 2 -27 -6 -55 -21
-81 -12 -199 20 -275 15 -36 30 -73 33 -82 4 -13 -35 -59 -143 -166 -178 -178
-236 -241 -319 -347 -176 -224 -297 -485 -350 -750 -4 -22 -9 -49 -12 -60 -17
-87 -23 -382 -10 -518 16 -160 77 -398 138 -534 10 -24 19 -45 19 -49 0 -12
91 -187 132 -251 110 -178 285 -379 438 -505 226 -188 600 -370 850 -415 14
-2 43 -8 65 -13 22 -5 67 -12 100 -15 33 -3 71 -8 85 -11 31 -6 338 -6 365 -1
11 3 51 8 90 12 38 4 72 8 75 10 3 2 23 6 45 9 22 4 58 11 80 17 22 6 47 13
55 14 8 2 49 15 91 29 607 196 1090 668 1298 1269 40 115 80 282 97 407 10 76
13 392 4 450 -5 30 -11 73 -14 95 -13 102 -70 302 -113 395 -137 297 -247 446
-567 762 -109 108 -147 153 -143 165 3 10 18 47 33 83 31 74 40 192 22 272
-11 46 -10 49 28 105 146 213 177 432 89 619 -55 116 -196 224 -330 252 -58
12 -1952 14 -2025 2z"/>
</g>
</svg>
